<?xml version="1.0" standalone="no"?>
<!DOCTYPE svg PUBLIC "-//W3C//DTD SVG 20010904//EN"
 "http://www.w3.org/TR/2001/REC-SVG-20010904/DTD/svg10.dtd">
<svg version="1.0" xmlns="http://www.w3.org/2000/svg"
 width="1204.000000pt" height="633.000000pt" viewBox="0 0 1204.000000 633.000000"
 preserveAspectRatio="xMidYMid meet">

<g transform="translate(0.000000,633.000000) scale(0.100000,-0.100000)"
fill="#000000" stroke="none">
<path d="M3770 5495 l0 -175 -721 0 c-477 0 -718 -3 -714 -10 4 -7 255 -10
721 -10 l714 0 0 -633 0 -633 -47 -23 c-91 -45 -26 -31 73 15 54 26 94 49 87
51 -6 2 -30 -5 -52 -16 -27 -12 -41 -15 -41 -8 0 7 -1 71 -2 142 l-1 130 2667
3 2667 2 -3 -142 -3 -143 -44 -22 c-24 -12 -49 -24 -55 -26 -6 -2 -8 -7 -4
-11 3 -4 37 7 75 24 37 18 83 39 101 47 18 7 30 18 27 23 -4 6 -18 4 -35 -5
-16 -8 -31 -15 -35 -15 -3 0 -5 209 -5 465 l0 465 728 2 727 3 3 338 2 337
-3415 0 -3415 0 0 -175z m1480 -165 l0 -320 -730 0 -730 0 0 320 0 320 730 0
730 0 0 -320z m408 3 l-3 -318 -192 -3 -193 -2 0 320 0 320 195 0 195 0 -2
-317z m1962 -3 l0 -320 -970 0 -970 0 0 320 0 320 970 0 970 0 0 -320z m408 3
l-3 -318 -190 0 -190 0 -3 318 -2 317 195 0 195 0 -2 -317z m1592 -3 l0 -320
-785 0 -785 0 0 320 0 320 785 0 785 0 0 -320z m488 3 l-3 -318 -227 0 c-126
0 -228 3 -228 8 0 4 0 147 0 317 l0 310 230 0 230 0 -2 -317z m472 -3 l0 -320
-230 0 -230 0 0 320 0 320 230 0 230 0 0 -320z m-4092 -657 l-3 -318 -1347 -3
-1348 -2 0 320 0 320 1350 0 1350 0 -2 -317z m420 0 l-3 -318 -200 0 -200 0
-3 318 -2 317 205 0 205 0 -2 -317z m1262 -3 l0 -320 -622 2 -623 3 -3 318 -2
317 625 0 625 0 0 -320z m478 3 l-3 -318 -227 -3 -228 -2 0 320 0 320 230 0
231 0 -3 -317z m472 -3 l0 -320 -230 0 -230 0 0 320 0 320 230 0 230 0 0 -320z"/>
<path d="M4698 5403 c-2 -20 -10 -29 -32 -34 -74 -20 -55 -109 22 -109 l32 0
0 79 c0 76 -15 121 -22 64z m0 -86 c4 -34 -25 -49 -44 -22 -10 13 -10 23 -3
37 15 27 43 18 47 -15z"/>
<path d="M4414 5371 c-7 -17 -6 -64 2 -93 6 -19 49 -25 59 -8 3 6 -3 10 -14
10 -17 0 -21 6 -21 35 0 24 5 35 15 35 23 0 18 14 -9 26 -21 10 -26 9 -32 -5z"/>
<path d="M4110 5314 c0 -30 5 -54 10 -54 6 0 10 18 10 40 0 28 5 43 16 47 21
8 34 -13 34 -54 0 -48 18 -40 22 9 2 31 8 44 21 46 14 3 17 -4 17 -42 0 -34 4
-46 15 -46 19 0 21 85 3 97 -7 4 -43 8 -80 9 l-68 1 0 -53z"/>
<path d="M4302 5358 c-17 -17 -15 -64 4 -82 20 -20 58 -21 74 -1 11 13 8 14
-17 9 -20 -4 -33 -1 -42 10 -12 14 -9 16 22 16 43 0 51 10 31 38 -17 24 -53
29 -72 10z m53 -18 c3 -5 -3 -10 -14 -10 -12 0 -21 5 -21 10 0 6 6 10 14 10 8
0 18 -4 21 -10z"/>
<path d="M4506 5354 c-33 -32 -9 -94 35 -94 39 0 59 19 59 55 0 24 -6 38 -19
45 -28 14 -57 12 -75 -6z m68 -26 c8 -14 7 -21 -6 -34 -30 -30 -75 9 -48 42
16 18 39 15 54 -8z"/>
<path d="M4753 5344 c-15 -24 -15 -29 -2 -53 18 -32 54 -39 80 -15 24 22 24
56 1 77 -27 25 -59 21 -79 -9z m62 -29 c0 -23 -4 -30 -20 -30 -21 0 -31 25
-21 51 11 28 41 12 41 -21z"/>
<path d="M5387 5363 c-14 -13 -6 -43 13 -53 11 -6 20 -16 20 -22 0 -5 -9 -8
-20 -5 -13 3 -20 0 -20 -9 0 -19 44 -18 61 2 11 14 10 20 -14 40 -32 28 -34
34 -6 34 11 0 17 5 14 10 -7 11 -38 13 -48 3z"/>
<path d="M5477 5363 c-11 -11 -8 -153 3 -153 6 0 10 11 10 25 0 20 5 25 23 25
29 0 57 29 57 58 0 35 -70 69 -93 45z m63 -28 c18 -22 3 -57 -23 -53 -31 4
-39 68 -9 68 11 0 25 -7 32 -15z"/>
<path d="M6388 5424 c-5 -4 -8 -35 -8 -69 0 -72 17 -95 68 -95 53 0 73 30 70
103 -4 77 -22 77 -26 0 -3 -61 -14 -83 -41 -83 -34 0 -44 18 -50 85 -3 37 -9
63 -13 59z"/>
<path d="M6557 5423 c-4 -3 -7 -42 -7 -85 0 -59 3 -79 13 -76 6 3 13 19 15 36
4 41 16 40 44 -3 20 -30 48 -47 48 -29 0 12 -35 64 -42 64 -5 0 -2 11 7 24 8
13 12 31 9 40 -10 26 -71 46 -87 29z m60 -39 c3 -9 0 -20 -8 -25 -23 -14 -29
-11 -29 16 0 28 27 35 37 9z"/>
<path d="M6697 5423 c-4 -3 -7 -42 -7 -85 l0 -78 49 0 c59 0 78 17 24 22 l-38
3 -3 65 c-3 63 -11 87 -25 73z"/>
<path d="M7753 5353 c-4 -10 3 -24 20 -39 34 -29 34 -38 2 -31 -16 3 -24 0
-22 -7 5 -16 36 -20 52 -6 22 18 18 35 -10 50 -32 17 -32 30 1 30 14 0 23 4
19 10 -10 16 -55 11 -62 -7z"/>
<path d="M7850 5291 c0 -47 4 -81 10 -81 6 0 10 11 10 25 0 18 5 25 19 25 40
0 65 53 43 88 -5 7 -25 15 -45 19 l-37 6 0 -82z m65 24 c0 -23 -5 -31 -22 -33
-20 -3 -23 1 -23 33 0 32 3 36 23 33 17 -2 22 -10 22 -33z"/>
<path d="M8850 5400 c0 -5 5 -10 10 -10 6 0 10 5 10 10 0 6 -4 10 -10 10 -5 0
-10 -4 -10 -10z"/>
<path d="M8446 5333 c9 -21 18 -46 21 -55 3 -10 8 -18 12 -18 8 0 51 85 51
100 0 22 -22 8 -35 -22 l-14 -33 -11 33 c-7 17 -18 32 -26 32 -12 0 -12 -6 2
-37z"/>
<path d="M8556 5354 c-37 -36 -3 -98 50 -92 40 4 43 26 3 25 -18 -1 -34 4 -36
11 -3 8 7 12 31 12 25 0 36 5 36 14 0 20 -28 46 -50 46 -10 0 -26 -7 -34 -16z
m54 -14 c0 -5 -9 -10 -21 -10 -11 0 -17 5 -14 10 3 6 13 10 21 10 8 0 14 -4
14 -10z"/>
<path d="M8660 5313 c0 -65 22 -70 30 -7 3 26 10 39 20 39 34 1 22 20 -12 21
l-38 1 0 -54z"/>
<path d="M8753 5354 c-4 -12 2 -25 20 -40 34 -29 34 -38 1 -30 -19 5 -25 3
-22 -6 3 -7 18 -13 34 -13 37 0 46 37 15 57 -27 17 -27 31 0 23 15 -5 20 -3
17 6 -7 22 -57 24 -65 3z"/>
<path d="M8850 5315 c0 -30 5 -55 10 -55 6 0 10 25 10 55 0 30 -4 55 -10 55
-5 0 -10 -25 -10 -55z"/>
<path d="M8918 5359 c-25 -14 -24 -75 1 -89 45 -23 91 -1 91 45 0 46 -50 69
-92 44z m66 -31 c8 -14 7 -21 -6 -34 -30 -30 -75 9 -48 42 16 18 39 15 54 -8z"/>
<path d="M9040 5313 c0 -63 17 -72 22 -11 2 31 8 44 20 46 13 3 17 -6 20 -39
4 -59 28 -64 28 -6 0 52 -13 66 -58 65 -32 -1 -32 -1 -32 -55z"/>
<path d="M9166 5354 c-34 -33 -9 -94 38 -94 13 0 29 7 36 15 11 13 8 14 -17 9
-20 -4 -33 -1 -42 10 -12 14 -9 16 28 16 39 0 42 2 35 23 -12 39 -50 50 -78
21z m54 -14 c0 -5 -9 -10 -20 -10 -11 0 -20 5 -20 10 0 6 9 10 20 10 11 0 20
-4 20 -10z"/>
<path d="M9818 5319 c-21 -12 -24 -69 -6 -87 14 -14 54 -16 63 -3 3 5 -7 11
-22 13 -24 3 -28 8 -28 33 0 25 4 30 28 33 15 2 25 8 22 13 -8 12 -35 11 -57
-2z"/>
<path d="M9905 5321 c-9 -9 -5 -90 5 -96 6 -4 10 8 10 28 0 34 18 60 38 55 5
-2 9 2 9 7 -2 10 -54 15 -62 6z"/>
<path d="M10320 5299 c0 -51 4 -78 10 -74 6 3 10 40 10 81 0 43 -4 74 -10 74
-6 0 -10 -34 -10 -81z"/>
<path d="M10373 5353 c-11 -33 -5 -133 8 -133 5 0 9 20 9 44 0 26 5 47 13 50
10 5 10 7 0 12 -18 8 -16 24 5 40 16 12 15 13 -5 14 -14 0 -24 -9 -30 -27z"/>
<path d="M4770 4865 c0 -18 -5 -25 -18 -25 -24 0 -52 -31 -52 -57 0 -27 31
-53 63 -53 l27 0 0 80 c0 47 -4 80 -10 80 -5 0 -10 -11 -10 -25z m0 -81 c0
-28 -4 -35 -16 -32 -27 5 -40 34 -25 52 23 28 41 19 41 -20z"/>
<path d="M4940 4809 c0 -51 4 -78 10 -74 6 3 10 40 10 81 0 43 -4 74 -10 74
-6 0 -10 -34 -10 -81z"/>
<path d="M4087 4825 c-1 -5 0 -30 3 -55 6 -47 17 -39 22 15 2 19 9 31 21 33
14 3 17 -4 17 -37 0 -22 5 -43 11 -46 7 -5 9 11 7 47 l-3 53 -37 0 c-21 1 -39
-4 -41 -10z"/>
<path d="M4222 4824 c-27 -18 -29 -55 -4 -77 38 -34 95 -11 95 38 0 49 -48 69
-91 39z m63 -39 c0 -25 -4 -30 -24 -30 -32 0 -49 28 -31 50 7 9 23 15 34 13
16 -2 21 -10 21 -33z"/>
<path d="M4340 4783 c0 -63 18 -71 22 -10 2 34 7 42 23 42 16 0 21 -8 23 -42
4 -55 20 -55 24 -1 2 31 8 44 21 46 14 3 17 -4 17 -37 0 -22 5 -43 10 -46 16
-10 24 24 14 64 l-9 36 -72 1 -73 0 0 -53z"/>
<path d="M4536 4824 c-21 -20 -20 -58 0 -79 18 -18 65 -17 71 1 2 7 -5 10 -20
7 -14 -3 -29 2 -36 11 -12 14 -9 16 23 16 28 0 36 4 36 18 0 39 -45 55 -74 26z
m54 -14 c0 -5 -12 -10 -26 -10 -14 0 -23 4 -19 10 3 6 15 10 26 10 10 0 19 -4
19 -10z"/>
<path d="M4830 4825 c-16 -20 -16 -61 0 -80 8 -10 25 -15 43 -13 42 4 47 26 6
25 -18 -1 -34 4 -36 11 -3 8 7 12 31 12 40 0 47 17 20 44 -20 20 -48 20 -64 1z
m55 -15 c4 -6 -5 -10 -20 -10 -15 0 -24 4 -20 10 3 6 12 10 20 10 8 0 17 -4
20 -10z"/>
<path d="M5066 4824 c-35 -34 -9 -94 40 -94 13 0 24 5 24 10 0 6 -8 10 -19 10
-10 0 -24 7 -32 16 -17 21 1 49 30 48 11 0 21 5 21 13 0 18 -45 16 -64 -3z"/>
<path d="M5163 4833 c-24 -9 -13 -23 12 -17 34 8 34 -19 -1 -35 -41 -18 -28
-46 23 -48 l42 -2 -6 37 c-10 66 -28 82 -70 65z m37 -68 c0 -8 -7 -15 -15 -15
-16 0 -20 12 -8 23 11 12 23 8 23 -8z"/>
<path d="M5260 4783 c0 -63 18 -71 22 -10 2 34 7 42 23 42 16 0 21 -8 23 -42
4 -55 22 -56 22 -3 0 28 5 43 16 47 21 8 34 -13 34 -55 0 -20 4 -31 10 -27 13
8 13 65 0 85 -7 11 -28 15 -80 16 l-70 0 0 -53z"/>
<path d="M5450 4761 c0 -47 4 -81 10 -81 6 0 10 11 10 25 0 18 5 25 19 25 40
0 65 53 43 88 -5 7 -25 15 -45 19 l-37 6 0 -82z m58 50 c22 -13 11 -56 -15
-59 -20 -3 -23 1 -23 32 0 36 11 44 38 27z"/>
<path d="M5580 4820 c-24 -24 -25 -38 -4 -68 30 -43 94 -21 94 33 0 53 -52 73
-90 35z m65 -35 c0 -25 -4 -30 -24 -30 -32 0 -49 28 -31 50 7 9 23 15 34 13
16 -2 21 -10 21 -33z"/>
<path d="M4150 4625 c0 -18 -5 -25 -19 -25 -11 0 -27 -7 -35 -16 -37 -36 -3
-99 49 -92 29 3 31 12 26 131 -1 34 -21 36 -21 2z m0 -80 c0 -37 -18 -47 -40
-20 -16 19 -3 55 21 55 15 0 19 -7 19 -35z"/>
<path d="M4210 4630 c0 -5 5 -10 10 -10 6 0 10 5 10 10 0 6 -4 10 -10 10 -5 0
-10 -4 -10 -10z"/>
<path d="M4330 4630 c0 -5 5 -10 10 -10 6 0 10 5 10 10 0 6 -4 10 -10 10 -5 0
-10 -4 -10 -10z"/>
<path d="M5070 4630 c0 -5 5 -10 10 -10 6 0 10 5 10 10 0 6 -4 10 -10 10 -5 0
-10 -4 -10 -10z"/>
<path d="M4501 4596 c-8 -10 -9 -16 -1 -21 5 -3 10 -22 10 -41 0 -37 18 -52
48 -38 15 7 14 8 -5 11 -19 4 -23 11 -23 39 0 24 5 34 15 34 8 0 15 5 15 10 0
6 -4 10 -9 10 -5 0 -16 2 -24 5 -7 3 -19 -1 -26 -9z"/>
<path d="M4787 4603 c-3 -5 -3 -31 1 -59 7 -50 31 -69 55 -45 8 8 5 11 -11 11
-18 0 -22 6 -22 35 0 24 5 35 15 35 8 0 15 5 15 10 0 6 -4 10 -9 10 -5 0 -16
3 -24 6 -8 3 -17 1 -20 -3z"/>
<path d="M4210 4545 c0 -30 5 -55 10 -55 6 0 10 25 10 55 0 30 -4 55 -10 55
-5 0 -10 -25 -10 -55z"/>
<path d="M4330 4545 c0 -30 5 -55 10 -55 6 0 10 25 10 55 0 30 -4 55 -10 55
-5 0 -10 -25 -10 -55z"/>
<path d="M4380 4543 c0 -63 18 -72 22 -10 2 34 7 42 23 42 16 0 21 -8 23 -42
4 -56 22 -55 22 1 0 50 -12 63 -57 63 l-33 0 0 -54z"/>
<path d="M4596 4584 c-21 -20 -20 -58 0 -79 18 -18 65 -17 71 1 2 7 -5 10 -20
7 -14 -3 -29 2 -36 11 -12 14 -9 16 23 16 28 0 36 4 36 18 0 39 -45 55 -74 26z
m54 -14 c0 -5 -12 -10 -26 -10 -14 0 -23 4 -19 10 3 6 15 10 26 10 10 0 19 -4
19 -10z"/>
<path d="M4707 4594 c-14 -14 -7 -43 13 -54 11 -6 20 -16 20 -22 0 -5 -9 -8
-20 -5 -13 3 -20 0 -20 -9 0 -19 44 -18 61 2 11 14 10 20 -14 40 -32 28 -35
38 -6 31 13 -3 19 -1 16 6 -4 14 -39 21 -50 11z"/>
<path d="M4867 4594 c-14 -14 -7 -24 14 -21 32 3 34 -18 4 -31 -39 -18 -29
-46 17 -49 21 -1 40 2 43 7 4 6 2 10 -4 10 -5 0 -11 19 -13 43 -3 37 -6 42
-28 45 -14 2 -29 0 -33 -4z m43 -69 c0 -8 -7 -15 -15 -15 -16 0 -20 12 -8 23
11 12 23 8 23 -8z"/>
<path d="M4960 4590 c0 -5 9 -10 20 -10 25 0 25 -18 0 -50 -28 -36 -25 -40 25
-40 25 0 45 5 45 10 0 6 -11 10 -25 10 -30 0 -30 1 -5 42 27 45 26 48 -20 48
-22 0 -40 -4 -40 -10z"/>
<path d="M5070 4545 c0 -30 5 -55 10 -55 6 0 10 25 10 55 0 30 -4 55 -10 55
-5 0 -10 -25 -10 -55z"/>
<path d="M5136 4587 c-21 -16 -24 -60 -6 -82 19 -23 66 -19 84 7 21 30 20 44
-4 68 -23 23 -49 26 -74 7z m63 -26 c13 -24 -8 -55 -35 -49 -20 3 -30 29 -20
54 8 20 43 17 55 -5z"/>
<path d="M5255 4591 c-9 -9 -5 -101 4 -101 6 0 11 19 13 43 2 35 7 43 26 45
20 3 22 -1 22 -42 0 -25 5 -46 10 -46 15 0 13 100 -2 102 -32 3 -69 3 -73 -1z"/>
<path d="M5388 4589 c-26 -15 -24 -75 3 -89 23 -13 61 -10 66 5 2 6 -11 10
-29 10 -17 0 -33 6 -35 13 -3 8 7 12 31 12 28 0 36 4 36 18 0 37 -36 52 -72
31z m47 -19 c4 -6 -5 -10 -20 -10 -15 0 -24 4 -20 10 3 6 12 10 20 10 8 0 17
-4 20 -10z"/>
<path d="M5490 4585 c0 -8 5 -15 10 -15 6 0 10 7 10 15 0 8 -4 15 -10 15 -5 0
-10 -7 -10 -15z"/>
<path d="M5490 4500 c0 -5 5 -10 10 -10 6 0 10 5 10 10 0 6 -4 10 -10 10 -5 0
-10 -4 -10 -10z"/>
<path d="M6627 4693 c-14 -13 -6 -43 13 -53 11 -6 20 -16 20 -22 0 -5 -9 -8
-20 -5 -13 3 -20 0 -20 -9 0 -19 44 -18 61 2 11 14 10 20 -14 40 -32 28 -34
34 -6 34 11 0 17 5 14 10 -7 11 -38 13 -48 3z"/>
<path d="M6717 4693 c-11 -10 -8 -141 3 -148 6 -4 10 5 10 19 0 21 5 26 23 26
29 0 57 29 57 58 0 35 -70 69 -93 45z m63 -28 c18 -22 3 -57 -23 -53 -22 3
-33 28 -23 54 7 18 30 18 46 -1z"/>
<path d="M7470 4670 c0 -47 4 -80 10 -80 6 0 10 33 10 80 0 47 -4 80 -10 80
-6 0 -10 -33 -10 -80z"/>
<path d="M7260 4691 c0 -11 40 -101 45 -101 5 0 45 90 45 101 0 20 -18 7 -30
-21 l-13 -31 -18 31 c-19 30 -29 38 -29 21z"/>
<path d="M7377 4693 c-13 -12 -7 -20 14 -19 31 1 35 -20 4 -28 -18 -5 -25 -13
-25 -31 0 -21 4 -24 40 -23 22 0 43 4 46 9 3 5 0 9 -5 9 -6 0 -11 18 -11 39 0
26 -5 41 -16 45 -20 8 -39 8 -47 -1z m43 -68 c0 -8 -7 -15 -15 -15 -16 0 -20
12 -8 23 11 12 23 8 23 -8z"/>
<path d="M7537 4682 c-22 -24 -21 -55 1 -75 37 -34 92 -11 92 38 0 50 -60 73
-93 37z m68 -37 c0 -25 -4 -30 -24 -30 -32 0 -49 28 -31 50 7 9 23 15 34 13
16 -2 21 -10 21 -33z"/>
<path d="M7660 4643 c0 -63 18 -71 22 -10 3 37 6 42 26 39 15 -1 22 2 20 10
-3 7 -19 13 -36 13 -32 0 -32 0 -32 -52z"/>
<path d="M7760 4685 c-16 -20 -16 -61 0 -80 8 -10 25 -15 43 -13 42 4 47 26 6
25 -18 -1 -34 4 -36 11 -3 8 7 12 31 12 40 0 47 17 20 44 -20 20 -48 20 -64 1z
m55 -15 c4 -6 -5 -10 -20 -10 -15 0 -24 4 -20 10 3 6 12 10 20 10 8 0 17 -4
20 -10z"/>
<path d="M8358 4659 c-21 -12 -24 -69 -6 -87 14 -14 68 -16 68 -3 0 5 -12 11
-27 13 -24 3 -28 8 -28 33 0 25 4 30 28 33 15 2 25 8 22 13 -8 12 -35 11 -57
-2z"/>
<path d="M8450 4614 c0 -62 16 -65 22 -4 2 22 8 35 18 36 8 1 19 2 25 3 5 0 4
6 -3 13 -9 9 -15 9 -24 0 -8 -8 -15 -9 -25 -1 -10 9 -13 0 -13 -47z"/>
<path d="M8855 4710 c-9 -14 -3 -140 7 -146 4 -3 8 31 8 75 0 79 -3 91 -15 71z"/>
<path d="M8913 4693 c-11 -33 -5 -133 8 -133 5 0 9 20 9 44 0 26 5 46 13 49 9
4 8 8 -3 16 -12 8 -12 13 4 30 19 21 19 21 -1 21 -14 0 -24 -9 -30 -27z"/>
<path d="M357 5433 c-4 -3 -7 -46 -7 -95 0 -72 3 -88 15 -88 11 0 15 11 15 41
0 33 3 40 17 37 10 -2 29 -20 42 -41 21 -32 51 -50 51 -31 0 9 -43 68 -52 72
-4 2 0 14 8 27 20 30 10 63 -23 76 -29 11 -57 12 -66 2z m68 -48 c0 -13 -8
-21 -22 -23 -19 -3 -23 1 -23 23 0 22 4 26 23 23 14 -2 22 -10 22 -23z"/>
<path d="M967 5433 c-4 -3 -7 -18 -7 -32 0 -22 -5 -27 -27 -29 -34 -2 -53 -26
-53 -64 0 -34 37 -61 77 -56 28 3 28 3 31 87 3 78 -5 111 -21 94z m-7 -123 c0
-43 -12 -50 -45 -27 -27 21 -13 67 20 67 22 0 25 -4 25 -40z"/>
<path d="M1450 5345 c0 -57 4 -95 10 -95 6 0 10 20 10 44 0 54 24 81 46 51 8
-10 14 -36 14 -57 0 -21 5 -38 10 -38 12 0 13 90 1 109 -6 9 -20 12 -40 9 -30
-4 -31 -3 -31 34 0 21 -4 38 -10 38 -6 0 -10 -38 -10 -95z"/>
<path d="M515 5410 c3 -5 10 -10 16 -10 5 0 9 5 9 10 0 6 -7 10 -16 10 -8 0
-12 -4 -9 -10z"/>
<path d="M1025 5410 c3 -5 10 -10 16 -10 5 0 9 5 9 10 0 6 -7 10 -16 10 -8 0
-12 -4 -9 -10z"/>
<path d="M1270 5410 c0 -5 5 -10 10 -10 6 0 10 5 10 10 0 6 -4 10 -10 10 -5 0
-10 -4 -10 -10z"/>
<path d="M1585 5410 c3 -5 10 -10 16 -10 5 0 9 5 9 10 0 6 -7 10 -16 10 -8 0
-12 -4 -9 -10z"/>
<path d="M1883 5374 c-13 -10 -15 -16 -6 -21 6 -5 13 -29 15 -53 3 -41 6 -45
31 -48 18 -2 27 1 27 11 0 8 -8 14 -17 13 -14 -1 -19 8 -21 37 -2 28 1 37 12
37 25 0 26 15 1 27 -19 8 -28 8 -42 -3z"/>
<path d="M1793 5369 c-31 -12 -29 -34 7 -60 33 -25 30 -44 -6 -35 -14 4 -24 2
-24 -4 0 -16 26 -23 55 -16 33 8 33 39 0 64 -32 25 -31 30 3 34 25 3 26 4 7
14 -12 7 -29 8 -42 3z"/>
<path d="M512 5315 c2 -30 8 -55 13 -55 6 0 11 25 13 55 2 45 0 55 -13 55 -13
0 -15 -10 -13 -55z"/>
<path d="M582 5358 c-14 -14 -16 -44 -3 -52 10 -7 2 -56 -10 -56 -13 0 -11
-34 3 -48 17 -17 73 -15 88 3 18 21 6 42 -32 59 l-33 14 28 11 c15 6 28 16 29
23 0 7 2 18 2 23 1 6 5 16 9 23 11 16 -64 17 -81 0z m56 -25 c5 -17 -26 -29
-40 -15 -6 6 -7 15 -3 22 9 14 37 9 43 -7z m7 -108 c0 -5 -15 -11 -32 -13 -25
-3 -33 1 -33 13 0 12 8 16 33 13 17 -2 32 -7 32 -13z"/>
<path d="M685 5360 c-7 -11 -1 -13 32 -11 36 3 35 -16 -2 -38 -37 -22 -42 -33
-22 -48 16 -12 85 -14 93 -2 3 5 0 9 -5 9 -6 0 -11 15 -11 34 0 54 -8 66 -45
66 -19 0 -37 -4 -40 -10z m63 -67 c-4 -22 -38 -30 -38 -10 0 14 13 24 33 26 5
1 7 -7 5 -16z"/>
<path d="M1022 5313 c4 -81 28 -85 28 -4 0 48 -3 61 -15 61 -13 0 -15 -11 -13
-57z"/>
<path d="M1160 5308 c0 -32 4 -58 10 -58 6 0 10 15 10 34 0 50 9 66 36 66 13
0 24 4 24 9 0 6 -18 9 -40 8 l-40 -1 0 -58z"/>
<path d="M1270 5310 c0 -33 4 -60 10 -60 6 0 10 27 10 60 0 33 -4 60 -10 60
-6 0 -10 -27 -10 -60z"/>
<path d="M1336 5354 c-20 -20 -20 -53 0 -82 12 -17 24 -22 47 -20 18 2 30 8
29 13 -2 6 -9 9 -14 7 -20 -5 -47 9 -53 29 -9 26 11 49 41 49 13 0 24 5 24 10
0 16 -57 12 -74 -6z"/>
<path d="M1582 5315 c2 -30 8 -55 13 -55 6 0 11 25 13 55 2 45 0 55 -13 55
-13 0 -15 -10 -13 -55z"/>
<path d="M1650 5351 c-27 -51 4 -105 56 -99 15 2 29 9 32 17 3 9 -1 11 -16 6
-23 -7 -62 9 -62 25 0 6 18 10 39 10 47 0 55 9 35 38 -20 28 -69 30 -84 3z
m70 -11 c0 -11 -49 -19 -55 -9 -3 4 2 12 12 17 18 10 43 5 43 -8z"/>
<path d="M1977 5364 c-14 -15 -6 -20 23 -16 41 6 40 -20 -1 -35 -24 -9 -30
-17 -27 -35 2 -19 9 -23 43 -24 48 -1 59 4 46 20 -5 6 -11 29 -13 51 -3 36 -6
40 -33 43 -17 2 -34 0 -38 -4z m53 -74 c0 -19 -20 -27 -33 -13 -8 7 11 33 24
33 5 0 9 -9 9 -20z"/>
<path d="M3530 3925 l0 -1075 88 2 87 2 -77 3 -78 4 0 1064 0 1064 78 4 77 3
-87 2 -88 2 0 -1075z"/>
<path d="M377 4043 c-4 -3 -7 -46 -7 -95 0 -67 3 -89 13 -86 6 3 13 21 15 41
4 49 25 48 58 -3 33 -49 65 -57 37 -9 -10 17 -23 35 -30 40 -8 8 -8 16 2 36
23 45 -3 78 -66 82 -9 1 -19 -2 -22 -6z m70 -39 c4 -11 -1 -22 -12 -30 -28
-21 -35 -17 -35 16 0 23 4 30 20 30 11 0 23 -7 27 -16z"/>
<path d="M718 4044 c-12 -11 -10 -184 1 -184 6 0 11 21 13 48 3 43 5 47 28 47
23 0 25 -4 28 -47 2 -27 7 -48 13 -48 11 0 12 90 0 109 -6 9 -19 12 -39 8 -30
-6 -31 -5 -34 34 -2 23 -6 37 -10 33z"/>
<path d="M1136 4043 c-3 -3 -6 -19 -6 -35 0 -23 -4 -28 -24 -28 -32 0 -56 -25
-56 -59 0 -37 29 -61 73 -61 l37 0 0 89 c0 83 -7 111 -24 94z m-6 -123 c0 -43
-12 -50 -45 -27 -27 21 -13 67 20 67 22 0 25 -4 25 -40z"/>
<path d="M530 4020 c0 -5 5 -10 10 -10 6 0 10 5 10 10 0 6 -4 10 -10 10 -5 0
-10 -4 -10 -10z"/>
<path d="M1200 4020 c0 -5 5 -10 10 -10 6 0 10 5 10 10 0 6 -4 10 -10 10 -5 0
-10 -4 -10 -10z"/>
<path d="M1330 4020 c0 -5 5 -10 10 -10 6 0 10 5 10 10 0 6 -4 10 -10 10 -5 0
-10 -4 -10 -10z"/>
<path d="M2190 4020 c0 -5 5 -10 10 -10 6 0 10 5 10 10 0 6 -4 10 -10 10 -5 0
-10 -4 -10 -10z"/>
<path d="M1532 3988 c-10 -13 -2 -93 12 -116 9 -14 56 -16 56 -2 0 6 -9 10
-20 10 -17 0 -20 7 -20 40 0 29 4 40 15 40 8 0 15 5 15 10 0 6 -7 10 -15 10
-8 0 -15 5 -15 10 0 14 -16 13 -28 -2z"/>
<path d="M1866 3981 c-11 -12 -14 -21 -8 -21 6 0 12 -21 14 -47 3 -44 5 -48
31 -51 31 -4 37 13 7 21 -15 4 -20 14 -20 41 0 29 4 36 20 36 11 0 20 5 20 10
0 6 -9 10 -19 10 -11 0 -21 5 -23 11 -2 6 -12 1 -22 -10z"/>
<path d="M530 3920 c0 -33 4 -60 10 -60 6 0 10 27 10 60 0 33 -4 60 -10 60 -6
0 -10 -27 -10 -60z"/>
<path d="M601 3967 c-6 -8 -9 -34 -6 -60 3 -26 1 -47 -4 -47 -5 0 -11 -7 -15
-15 -15 -41 83 -64 104 -24 14 24 -2 49 -31 49 -29 0 -32 19 -5 30 18 6 26 17
26 33 0 13 5 28 12 35 9 9 3 12 -29 12 -22 0 -46 -6 -52 -13z m49 -27 c0 -13
-7 -20 -20 -20 -13 0 -20 7 -20 20 0 13 7 20 20 20 13 0 20 -7 20 -20z m10
-105 c0 -10 -10 -15 -30 -15 -20 0 -30 5 -30 15 0 10 10 15 30 15 20 0 30 -5
30 -15z"/>
<path d="M856 3964 c-20 -20 -20 -53 0 -82 15 -22 47 -28 78 -16 27 10 18 24
-12 18 -20 -4 -34 0 -47 13 -18 17 -17 18 29 21 43 3 46 5 40 25 -12 39 -59
51 -88 21z m64 -19 c0 -9 -9 -15 -25 -15 -16 0 -25 6 -25 15 0 9 9 15 25 15
16 0 25 -6 25 -15z"/>
<path d="M1194 3966 c-9 -24 1 -99 14 -104 9 -3 12 13 12 57 0 57 -13 81 -26
47z"/>
<path d="M1330 3920 c0 -33 4 -60 10 -60 6 0 10 27 10 60 0 33 -4 60 -10 60
-6 0 -10 -27 -10 -60z"/>
<path d="M1390 3918 c0 -43 3 -59 13 -55 13 4 14 8 16 62 1 30 4 35 26 35 23
0 25 -3 25 -50 0 -28 5 -50 10 -50 7 0 10 22 8 58 l-3 57 -47 2 -48 2 0 -61z"/>
<path d="M1632 3968 c-19 -19 -14 -73 7 -92 22 -20 72 -18 79 2 3 9 -3 11 -22
6 -26 -6 -56 9 -56 27 0 5 18 9 40 9 32 0 40 4 40 18 0 25 -20 42 -50 42 -14
0 -31 -5 -38 -12z m68 -23 c0 -16 -45 -21 -54 -6 -8 12 4 21 31 21 14 0 23 -6
23 -15z"/>
<path d="M1753 3963 c-4 -10 3 -24 20 -39 35 -30 35 -48 1 -40 -19 5 -25 3
-22 -6 7 -20 59 -16 72 5 9 15 5 23 -24 47 l-35 29 28 1 c15 0 27 5 27 10 0
17 -60 11 -67 -7z"/>
<path d="M1957 3974 c-14 -15 -6 -20 23 -16 41 6 40 -21 -1 -38 -22 -9 -29
-18 -27 -34 3 -18 11 -21 51 -23 26 -1 47 2 47 7 0 6 -4 10 -9 10 -6 0 -11 21
-13 48 -3 44 -5 47 -33 50 -17 2 -34 0 -38 -4z m53 -74 c0 -13 -7 -20 -20 -20
-23 0 -26 10 -8 28 18 18 28 15 28 -8z"/>
<path d="M2060 3970 c0 -5 14 -10 31 -10 31 0 31 0 15 -25 -9 -14 -23 -36 -32
-50 l-16 -25 51 0 c28 0 51 5 51 10 0 6 -11 10 -25 10 -30 0 -31 13 -7 48 36
52 37 52 -17 52 -28 0 -51 -4 -51 -10z"/>
<path d="M2190 3920 c0 -33 4 -60 10 -60 6 0 10 27 10 60 0 33 -4 60 -10 60
-6 0 -10 -27 -10 -60z"/>
<path d="M2257 3962 c-35 -38 -5 -102 48 -102 29 0 65 32 65 58 0 10 -7 28
-16 40 -19 28 -74 30 -97 4z m81 -36 c5 -45 -47 -65 -68 -26 -16 31 4 62 38
58 21 -2 28 -9 30 -32z"/>
<path d="M2400 3918 c0 -69 18 -78 22 -10 3 43 5 47 28 47 23 0 25 -4 28 -47
2 -27 7 -48 13 -48 11 0 12 90 1 108 -5 7 -26 11 -50 10 l-42 -1 0 -59z"/>
<path d="M2546 3964 c-20 -20 -20 -53 0 -82 15 -22 47 -28 78 -16 27 10 18 24
-12 18 -20 -4 -34 0 -47 13 -18 17 -17 18 28 21 49 3 54 10 37 43 -13 23 -62
26 -84 3z m64 -19 c0 -9 -9 -15 -25 -15 -16 0 -25 6 -25 15 0 9 9 15 25 15 16
0 25 -6 25 -15z"/>
<path d="M3770 3923 c-52 -25 -90 -47 -83 -50 6 -2 25 3 42 11 16 9 32 16 36
16 3 0 5 -322 5 -715 l0 -715 -985 0 c-650 0 -985 -3 -985 -10 0 -7 335 -10
985 -10 l985 0 0 -520 0 -520 -647 -3 -648 -2 648 -3 647 -2 0 -80 0 -80 -45
-22 c-25 -12 -45 -26 -45 -30 0 -12 -2 -12 106 38 107 50 110 52 102 59 -3 3
-25 -4 -49 -14 l-44 -20 -5 77 c-3 42 -4 251 -2 465 l2 387 3770 0 3770 0 -2
-467 -3 -468 -47 -23 c-69 -32 -59 -47 10 -16 31 15 78 36 105 47 26 12 47 25
47 29 0 12 -22 9 -50 -7 -14 -8 -28 -14 -32 -15 -5 0 -8 211 -8 470 l0 470
-3307 2 -3308 3 0 315 0 315 2203 3 2202 2 0 543 0 542 43 19 c26 11 37 20 28
23 -8 3 -55 -14 -105 -38 -109 -52 -101 -47 -92 -56 3 -4 27 3 51 15 25 12 48
22 50 22 3 0 5 -90 5 -200 l0 -200 -2666 2 -2665 3 -1 198 0 199 51 23 c50 24
63 35 39 35 -7 -1 -56 -22 -108 -47z m2720 -748 l0 -315 -1350 0 -1350 0 0
315 0 315 1350 0 1350 0 0 -315z m420 0 l0 -315 -205 0 -205 0 0 315 0 315
205 0 205 0 0 -315z m1260 0 l0 -315 -625 0 -625 0 0 315 0 315 625 0 625 0 0
-315z m475 0 l0 -310 -227 -3 -228 -2 0 315 0 315 228 -2 227 -3 0 -310z m475
0 l0 -315 -230 0 -230 0 0 315 0 315 230 0 230 0 0 -315z m-4870 -655 l0 -320
-231 2 -232 3 1 315 c1 173 1 316 2 318 0 1 104 2 230 2 l230 0 0 -320z m470
0 l0 -320 -230 0 -230 0 0 320 0 320 230 0 230 0 0 -320z"/>
<path d="M4770 3365 c0 -20 -5 -25 -24 -25 -26 0 -56 -33 -56 -61 0 -24 33
-49 63 -49 l27 0 0 80 c0 44 -2 80 -5 80 -3 0 -5 -11 -5 -25z m-2 -83 c3 -30
1 -33 -19 -30 -31 4 -47 32 -29 53 21 25 45 14 48 -23z"/>
<path d="M4925 3378 c-10 -28 0 -141 13 -146 9 -3 12 17 12 77 0 49 -4 81 -10
81 -6 0 -13 -6 -15 -12z"/>
<path d="M4080 3284 c0 -64 17 -73 22 -11 2 34 7 42 23 42 16 0 21 -8 23 -42
4 -53 22 -57 22 -5 0 51 -13 67 -55 68 l-35 1 0 -53z"/>
<path d="M4210 3320 c-25 -25 -26 -52 -2 -73 39 -35 92 -13 92 38 0 53 -52 73
-90 35z m65 -35 c0 -23 -5 -31 -21 -33 -30 -4 -48 21 -34 48 18 33 55 23 55
-15z"/>
<path d="M4330 3283 c0 -63 18 -71 22 -10 2 34 7 42 23 42 16 0 21 -8 23 -42
4 -55 22 -56 22 -3 0 27 5 43 15 47 22 8 28 -1 35 -50 5 -31 9 -38 14 -24 12
25 -2 87 -21 94 -9 3 -24 1 -34 -5 -10 -6 -21 -8 -24 -3 -3 5 -21 9 -40 8
l-35 -1 0 -53z"/>
<path d="M4526 3324 c-21 -20 -20 -58 0 -79 18 -17 65 -17 71 1 2 6 -8 9 -25
6 -20 -3 -31 1 -35 12 -5 13 1 16 28 16 27 0 35 4 35 18 0 39 -45 55 -74 26z
m52 -21 c2 -8 -5 -13 -17 -13 -21 0 -35 13 -24 24 10 10 36 3 41 -11z"/>
<path d="M4813 3314 c-15 -24 -15 -29 -2 -53 11 -20 22 -26 49 -26 18 0 35 5
37 10 2 6 -11 10 -29 10 -17 0 -33 6 -35 13 -3 8 7 12 31 12 40 0 47 17 20 44
-23 24 -51 19 -71 -10z m58 -9 c0 -5 -9 -11 -21 -13 -20 -3 -27 8 -13 22 10 9
34 3 34 -9z"/>
<path d="M5057 3322 c-21 -23 -22 -56 -1 -76 17 -18 64 -22 64 -6 0 6 -11 10
-24 10 -16 0 -27 7 -31 20 -8 27 13 53 37 46 12 -3 18 0 15 7 -6 20 -42 19
-60 -1z"/>
<path d="M5149 3324 c-11 -13 -9 -14 13 -9 35 9 46 -12 14 -26 -26 -12 -40
-35 -31 -49 3 -5 23 -9 44 -8 l39 0 -5 42 c-3 22 -10 47 -16 54 -13 17 -42 15
-58 -4z m51 -58 c0 -16 -18 -31 -27 -22 -8 8 5 36 17 36 5 0 10 -6 10 -14z"/>
<path d="M5250 3283 c0 -63 18 -71 22 -10 2 34 7 42 23 42 16 0 21 -8 23 -42
4 -55 22 -56 22 -3 0 27 5 43 15 47 22 8 28 -1 35 -50 5 -33 8 -38 15 -23 4
10 4 35 -1 55 l-9 36 -72 1 -73 0 0 -53z"/>
<path d="M5440 3260 c0 -47 4 -80 10 -80 6 0 10 11 10 25 0 20 5 25 24 25 30
0 49 22 49 57 0 32 -26 53 -65 53 l-28 0 0 -80z m58 51 c22 -13 11 -56 -15
-59 -20 -3 -23 1 -23 32 0 36 11 44 38 27z"/>
<path d="M5570 3320 c-25 -25 -26 -52 -2 -73 45 -41 114 0 93 55 -16 42 -59
50 -91 18z m65 -35 c0 -25 -4 -30 -24 -30 -32 0 -49 28 -31 50 7 9 23 15 34
13 16 -2 21 -10 21 -33z"/>
<path d="M4150 3125 c0 -17 -5 -25 -18 -25 -28 0 -62 -29 -62 -54 0 -31 30
-56 68 -56 l32 0 0 80 c0 47 -4 80 -10 80 -5 0 -10 -11 -10 -25z m-2 -83 c3
-30 1 -33 -19 -30 -31 4 -47 32 -29 53 21 25 45 14 48 -23z"/>
<path d="M4200 3130 c0 -5 5 -10 10 -10 6 0 10 5 10 10 0 6 -4 10 -10 10 -5 0
-10 -4 -10 -10z"/>
<path d="M4320 3130 c0 -5 5 -10 10 -10 6 0 10 5 10 10 0 6 -4 10 -10 10 -5 0
-10 -4 -10 -10z"/>
<path d="M5060 3130 c0 -5 5 -10 10 -10 6 0 10 5 10 10 0 6 -4 10 -10 10 -5 0
-10 -4 -10 -10z"/>
<path d="M4491 3096 c-8 -10 -9 -16 -1 -21 5 -3 10 -22 10 -41 0 -37 18 -52
48 -38 15 7 14 8 -5 11 -19 4 -23 11 -23 39 0 24 5 34 15 34 8 0 15 5 15 10 0
6 -4 10 -9 10 -5 0 -16 2 -24 5 -7 3 -19 -1 -26 -9z"/>
<path d="M4777 3103 c-3 -5 -3 -31 1 -59 7 -50 31 -69 55 -45 8 8 5 11 -11 11
-18 0 -22 6 -22 35 0 24 5 35 15 35 8 0 15 5 15 10 0 6 -4 10 -9 10 -5 0 -16
3 -24 6 -8 3 -17 1 -20 -3z"/>
<path d="M4200 3046 c0 -31 5 -56 10 -56 6 0 10 22 10 49 0 28 -4 53 -10 56
-6 4 -10 -15 -10 -49z"/>
<path d="M4320 3046 c0 -31 5 -56 10 -56 6 0 10 22 10 49 0 28 -4 53 -10 56
-6 4 -10 -15 -10 -49z"/>
<path d="M4370 3043 c0 -63 18 -72 22 -10 2 34 7 42 23 42 16 0 21 -8 23 -42
4 -56 22 -55 22 1 0 50 -12 63 -57 63 l-33 0 0 -54z"/>
<path d="M4586 3084 c-36 -35 -7 -98 42 -92 37 4 38 23 0 23 -17 0 -33 6 -35
13 -3 8 7 12 31 12 29 0 36 4 36 20 0 18 -26 40 -49 40 -5 0 -17 -7 -25 -16z
m52 -21 c2 -8 -5 -13 -17 -13 -21 0 -35 13 -24 24 10 10 36 3 41 -11z"/>
<path d="M4697 3094 c-14 -14 -7 -43 13 -54 25 -13 26 -32 2 -28 -11 2 -21 -1
-23 -7 -7 -18 47 -17 62 1 12 14 10 19 -14 40 -32 28 -35 38 -6 31 13 -3 19
-1 16 6 -4 14 -39 21 -50 11z"/>
<path d="M4863 3093 c-21 -8 -15 -23 8 -20 32 3 34 -18 4 -31 -42 -19 -29 -46
23 -50 25 -2 42 1 42 7 0 6 -4 11 -10 11 -5 0 -10 18 -10 39 0 45 -19 60 -57
44z m37 -67 c0 -8 -4 -17 -9 -21 -12 -7 -24 12 -16 25 9 15 25 12 25 -4z"/>
<path d="M4950 3090 c0 -5 9 -10 20 -10 25 0 25 -18 0 -50 -28 -36 -25 -40 25
-40 25 0 45 5 45 10 0 6 -11 10 -25 10 -30 0 -30 1 -5 42 27 45 26 48 -20 48
-22 0 -40 -4 -40 -10z"/>
<path d="M5060 3046 c0 -31 5 -56 10 -56 6 0 10 22 10 49 0 28 -4 53 -10 56
-6 4 -10 -15 -10 -49z"/>
<path d="M5132 3093 c-25 -10 -34 -53 -17 -79 28 -43 105 -21 105 29 0 37 -50
66 -88 50z m57 -30 c12 -23 -4 -53 -29 -53 -25 0 -41 29 -29 52 12 23 45 23
58 1z"/>
<path d="M5244 3091 c-9 -9 -3 -101 6 -101 6 0 10 15 10 33 0 41 13 62 34 54
11 -4 16 -19 16 -47 0 -22 5 -40 10 -40 14 0 12 86 -2 98 -12 10 -65 12 -74 3z"/>
<path d="M5376 3084 c-20 -19 -21 -68 -2 -83 17 -14 68 -11 73 4 2 6 -11 10
-29 10 -17 0 -33 6 -35 13 -3 8 7 12 31 12 25 0 36 5 36 14 0 18 -27 46 -45
46 -7 0 -21 -7 -29 -16z m49 -13 c3 -5 1 -13 -5 -16 -15 -9 -43 3 -35 15 8 13
32 13 40 1z"/>
<path d="M5480 3085 c0 -8 5 -15 10 -15 6 0 10 7 10 15 0 8 -4 15 -10 15 -5 0
-10 -7 -10 -15z"/>
<path d="M5480 3000 c0 -5 5 -10 10 -10 6 0 10 5 10 10 0 6 -4 10 -10 10 -5 0
-10 -4 -10 -10z"/>
<path d="M6623 3203 c-20 -7 -15 -24 14 -55 l27 -28 -28 0 c-15 0 -25 -4 -21
-10 10 -17 52 -11 60 7 4 12 -2 25 -19 40 -31 27 -33 37 -5 30 13 -3 19 -1 16
6 -4 13 -26 18 -44 10z"/>
<path d="M6710 3124 c0 -54 4 -83 10 -79 6 3 10 17 10 31 0 17 6 24 19 24 27
0 51 26 51 55 0 27 -34 55 -67 55 -22 0 -23 -3 -23 -86z m63 45 c14 -22 2 -49
-23 -49 -16 0 -20 6 -20 36 0 28 4 35 16 32 9 -2 21 -10 27 -19z"/>
<path d="M7470 3180 c0 -47 4 -80 10 -80 6 0 10 33 10 80 0 47 -4 80 -10 80
-6 0 -10 -33 -10 -80z"/>
<path d="M7260 3202 c0 -12 40 -102 45 -102 5 0 45 90 45 102 0 6 -7 5 -15 -2
-8 -7 -15 -18 -15 -26 0 -25 -20 -25 -29 -1 -10 26 -31 45 -31 29z"/>
<path d="M7377 3203 c-14 -13 -7 -23 14 -20 30 3 34 -16 7 -28 -13 -6 -24 -20
-26 -32 -3 -19 1 -22 36 -21 l40 0 -5 42 c-3 22 -10 47 -16 54 -10 13 -39 16
-50 5z m43 -67 c0 -8 -4 -17 -9 -21 -12 -7 -24 12 -16 25 9 15 25 12 25 -4z"/>
<path d="M7542 3194 c-58 -40 5 -118 69 -84 25 14 25 61 1 83 -23 21 -41 21
-70 1z m61 -25 c15 -24 1 -49 -27 -49 -29 0 -44 33 -25 56 15 18 38 15 52 -7z"/>
<path d="M7660 3156 c0 -65 17 -76 22 -13 3 37 6 42 26 40 23 -3 30 11 11 23
-6 3 -16 1 -22 -5 -7 -7 -14 -7 -24 0 -10 9 -13 1 -13 -45z"/>
<path d="M7766 3197 c-21 -16 -24 -60 -6 -82 8 -10 25 -15 43 -13 41 4 45 23
5 23 -17 0 -33 6 -35 13 -3 8 7 12 31 12 40 0 47 17 20 44 -19 19 -35 20 -58
3z m45 -22 c0 -5 -9 -11 -21 -13 -20 -3 -27 8 -13 22 10 9 34 3 34 -9z"/>
<path d="M8358 3169 c-21 -12 -24 -69 -6 -87 14 -14 68 -16 68 -3 0 5 -12 11
-27 13 -24 3 -28 8 -28 33 0 25 4 30 28 33 15 2 25 8 22 13 -8 12 -35 11 -57
-2z"/>
<path d="M8450 3125 c0 -63 16 -67 22 -5 2 30 7 35 26 33 12 -2 22 1 22 7 0
15 -20 22 -34 11 -9 -7 -16 -7 -24 1 -9 9 -12 -2 -12 -47z"/>
<path d="M8855 3220 c-9 -14 -3 -140 7 -146 4 -3 8 31 8 75 0 79 -3 91 -15 71z"/>
<path d="M8921 3217 c-12 -16 -15 -34 -13 -99 2 -61 22 -63 22 -3 0 27 5 45
11 45 8 0 7 5 -2 16 -11 14 -11 18 4 29 9 7 17 15 17 19 0 11 -27 6 -39 -7z"/>
<path d="M3956 2515 c-19 -19 -21 -66 -4 -83 14 -14 68 -16 68 -3 0 5 -12 11
-27 13 -36 4 -46 52 -14 63 12 3 26 3 32 -1 7 -4 10 -1 7 7 -7 20 -43 23 -62
4z"/>
<path d="M4050 2476 c0 -65 17 -76 22 -13 3 37 6 42 26 40 23 -3 30 11 11 23
-6 3 -16 1 -22 -5 -7 -7 -14 -7 -24 0 -10 9 -13 1 -13 -45z"/>
<path d="M4460 2500 c0 -47 4 -80 10 -80 6 0 10 33 10 80 0 47 -4 80 -10 80
-6 0 -10 -33 -10 -80z"/>
<path d="M4517 2553 c-8 -17 -12 -49 -9 -80 5 -61 22 -72 22 -15 0 21 6 44 12
50 10 10 10 15 -2 23 -13 8 -13 11 3 23 21 16 22 26 2 26 -8 0 -21 -12 -28
-27z"/>
<path d="M3132 3913 c70 -2 187 -2 260 0 73 1 16 3 -127 3 -143 0 -203 -2
-133 -3z"/>
<path d="M390 2500 c0 -53 4 -90 10 -90 6 0 10 18 10 40 0 28 4 40 15 40 8 0
29 -18 46 -40 46 -57 68 -52 28 6 -23 34 -28 49 -20 57 15 15 14 50 -1 65 -7
7 -29 12 -50 12 l-38 0 0 -90z m74 53 c5 -11 1 -22 -11 -30 -24 -18 -37 -11
-41 20 -3 23 0 27 21 27 14 0 28 -7 31 -17z"/>
<path d="M550 2570 c0 -5 5 -10 10 -10 6 0 10 5 10 10 0 6 -4 10 -10 10 -5 0
-10 -4 -10 -10z"/>
<path d="M1326 2531 c-11 -12 -14 -21 -8 -21 6 0 12 -21 14 -47 3 -50 19 -63
56 -47 14 6 13 8 -8 13 -20 6 -26 14 -28 44 -3 32 0 37 17 37 12 0 21 5 21 10
0 6 -9 10 -19 10 -11 0 -21 5 -23 11 -2 6 -12 1 -22 -10z"/>
<path d="M550 2470 c0 -33 4 -60 10 -60 6 0 10 27 10 60 0 33 -4 60 -10 60 -6
0 -10 -27 -10 -60z"/>
<path d="M616 2514 c-19 -18 -19 -20 -6 -45 8 -14 7 -28 -6 -54 -20 -42 -7
-65 36 -65 43 0 60 10 60 35 0 18 -9 26 -37 36 l-38 12 33 14 c20 8 32 20 32
32 0 11 3 26 6 35 5 13 -1 16 -29 16 -20 0 -43 -7 -51 -16z m52 -27 c2 -11 -3
-17 -17 -17 -23 0 -35 15 -26 31 10 15 39 6 43 -14z m12 -102 c0 -16 -55 -22
-64 -6 -8 13 5 21 36 21 18 0 28 -5 28 -15z"/>
<path d="M727 2524 c-13 -14 -7 -20 20 -19 37 0 39 -21 3 -34 -25 -8 -31 -15
-28 -33 2 -19 10 -23 45 -25 24 -1 45 2 48 8 4 5 2 9 -4 9 -5 0 -11 21 -13 48
-3 44 -5 47 -33 50 -17 2 -34 0 -38 -4z m53 -73 c0 -21 -26 -36 -36 -20 -6 11
13 39 27 39 5 0 9 -9 9 -19z"/>
<path d="M925 2473 c27 -59 33 -69 38 -62 6 7 47 107 47 113 0 3 -4 6 -10 6
-5 0 -17 -17 -26 -37 l-16 -38 -15 38 c-8 20 -21 37 -29 37 -10 0 -8 -14 11
-57z"/>
<path d="M1042 2473 l3 -58 48 -1 47 -1 0 59 c0 72 -22 77 -30 7 -4 -36 -9
-44 -25 -44 -17 0 -20 8 -23 48 -2 26 -8 47 -13 47 -6 0 -9 -24 -7 -57z"/>
<path d="M1187 2512 c-36 -40 -9 -102 44 -102 30 0 43 9 58 37 31 59 -57 115
-102 65z m78 -36 c0 -36 -27 -56 -52 -40 -40 25 -20 77 26 72 21 -2 26 -8 26
-32z"/>
<path d="M1417 2523 c-15 -15 -5 -22 23 -16 41 8 40 -16 -1 -39 -46 -27 -36
-52 23 -55 l46 -2 -5 42 c-8 60 -19 77 -52 77 -15 0 -31 -3 -34 -7z m49 -89
c-5 -14 -9 -14 -22 -3 -14 12 -14 14 2 26 21 15 30 3 20 -23z"/>
<path d="M424 1531 c-12 -5 -31 -22 -44 -38 -46 -58 1 -143 80 -143 47 0 70 8
70 25 0 9 -9 10 -40 2 -35 -10 -43 -8 -67 9 -37 28 -42 75 -12 105 18 18 29
21 70 16 43 -5 63 3 41 17 -17 10 -79 15 -98 7z"/>
<path d="M1266 1533 c-3 -3 -6 -19 -6 -35 0 -23 -4 -28 -23 -28 -50 0 -76 -70
-39 -103 10 -10 35 -17 55 -17 l37 0 0 89 c0 83 -7 111 -24 94z m-6 -123 c0
-32 -4 -40 -18 -40 -36 0 -55 43 -30 68 7 7 20 12 30 12 14 0 18 -8 18 -40z"/>
<path d="M1576 1532 c-8 -13 5 -53 15 -46 12 7 12 41 0 49 -5 3 -12 2 -15 -3z"/>
<path d="M1450 1440 c0 -73 3 -90 15 -90 12 0 15 17 15 90 0 73 -3 90 -15 90
-12 0 -15 -17 -15 -90z"/>
<path d="M1519 1523 c-1 -8 0 -134 1 -160 0 -7 5 -13 10 -13 6 0 10 37 10 90
0 53 -4 90 -10 90 -5 0 -10 -3 -11 -7z"/>
<path d="M2170 1522 c0 -5 7 -16 16 -23 14 -12 16 -11 13 5 -4 20 -29 35 -29
18z"/>
<path d="M2000 1510 c0 -5 7 -10 16 -10 8 0 12 5 9 10 -3 6 -10 10 -16 10 -5
0 -9 -4 -9 -10z"/>
<path d="M1912 1478 c-6 -6 -8 -27 -6 -47 11 -78 13 -81 44 -81 35 0 41 17 8
22 -33 4 -39 67 -9 75 27 7 26 15 -3 29 -16 8 -28 8 -34 2z"/>
<path d="M2067 1473 c-10 -12 -13 -23 -8 -29 6 -5 11 -27 13 -49 3 -35 6 -40
31 -43 15 -2 27 1 27 7 0 6 -9 11 -20 11 -17 0 -20 7 -20 40 0 33 3 40 20 40
11 0 20 5 20 10 0 6 -9 10 -19 10 -11 0 -21 5 -23 11 -2 6 -11 2 -21 -8z"/>
<path d="M566 1448 c-32 -45 -6 -98 48 -98 39 0 66 26 66 62 0 55 -83 81 -114
36z m84 -18 c16 -31 -4 -62 -38 -58 -28 3 -40 32 -28 64 8 21 54 17 66 -6z"/>
<path d="M710 1410 c0 -33 4 -60 10 -60 6 0 10 14 10 31 0 42 17 71 40 67 24
-4 27 16 4 20 -9 2 -21 -2 -26 -10 -7 -10 -11 -10 -15 0 -12 30 -23 7 -23 -48z"/>
<path d="M820 1380 c0 -53 4 -90 10 -90 6 0 10 14 10 30 0 26 3 30 29 30 35 0
54 22 54 62 0 37 -24 58 -70 58 l-33 0 0 -90z m68 61 c8 -5 12 -21 10 -37 -2
-23 -9 -30 -30 -32 -27 -3 -28 -1 -28 37 0 42 16 53 48 32z"/>
<path d="M967 1452 c-40 -44 -6 -106 54 -100 47 4 71 46 49 86 -20 35 -77 43
-103 14z m78 -42 c0 -31 -3 -35 -27 -38 -34 -4 -54 27 -38 59 8 14 19 19 38
17 24 -3 27 -7 27 -38z"/>
<path d="M1336 1455 c-21 -21 -21 -69 0 -90 18 -18 75 -17 81 1 2 7 -6 10 -22
7 -24 -5 -55 11 -55 28 0 4 20 9 45 11 44 3 44 3 32 28 -15 30 -58 38 -81 15z
m62 -22 c2 -9 -7 -13 -27 -13 -23 0 -29 4 -24 16 6 17 44 15 51 -3z"/>
<path d="M1647 1452 c-47 -52 9 -122 77 -96 28 11 17 24 -14 18 -31 -7 -65 11
-54 27 3 5 23 9 45 9 43 0 46 5 23 38 -18 27 -55 29 -77 4z m63 -17 c0 -9 -9
-15 -25 -15 -24 0 -32 10 -18 23 12 13 43 7 43 -8z"/>
<path d="M1770 1408 c0 -69 18 -78 22 -11 2 37 7 49 22 51 24 5 36 -14 36 -60
0 -21 5 -38 10 -38 15 0 12 96 -3 109 -8 6 -30 10 -50 9 l-37 -1 0 -59z"/>
<path d="M2000 1411 c0 -34 4 -61 10 -61 6 0 10 23 10 50 0 28 0 53 1 57 0 4
-4 9 -10 11 -7 2 -11 -18 -11 -57z"/>
<path d="M2157 1464 c-14 -14 -6 -23 19 -21 38 3 39 -15 3 -35 -47 -27 -36
-52 24 -55 26 -1 47 2 47 7 0 6 -4 10 -9 10 -6 0 -11 21 -13 48 -3 44 -5 47
-33 50 -17 2 -34 0 -38 -4z m46 -95 c-4 -4 -15 -4 -23 2 -13 8 -12 12 5 25 18
14 20 13 23 -2 2 -9 0 -20 -5 -25z"/>
<path d="M3781 1134 c-102 -48 -107 -51 -99 -60 3 -3 24 4 47 16 l41 20 0
-150 0 -150 3790 0 3789 0 3 157 3 158 35 17 c19 9 40 19 45 21 6 2 7 8 3 12
-8 9 -208 -84 -208 -97 0 -12 6 -10 49 12 21 10 41 16 45 13 3 -4 6 -69 6
-145 l0 -138 -3770 0 -3770 0 0 148 0 149 50 23 c28 13 50 27 50 32 0 13 -9
10 -109 -38z"/>
</g>
</svg>
